<?xml version="1.0" encoding="iso-8859-1"?>
<!-- Generator: Adobe Illustrator 18.0.0, SVG Export Plug-In . SVG Version: 6.00 Build 0)  -->
<!DOCTYPE svg PUBLIC "-//W3C//DTD SVG 1.1//EN" "http://www.w3.org/Graphics/SVG/1.1/DTD/svg11.dtd">
<svg version="1.1" id="Capa_1" xmlns="http://www.w3.org/2000/svg" xmlns:xlink="http://www.w3.org/1999/xlink" x="0px" y="0px"
	 viewBox="0 0 58 58" style="enable-background:new 0 0 58 58;" xml:space="preserve">
<g>
	<path d="M49.684,35.029c-2.396,0-4.407,1.449-5.684,3.213c-1.276-1.764-3.288-3.213-5.684-3.213c-3.818,0-6.871,2.963-7.271,7.052
		c-0.042,0.267-0.145,1.22,0.226,2.709c0.545,2.197,1.8,4.191,3.631,5.771l8.329,7.126c0.214,0.185,0.487,0.285,0.77,0.285
		c0.278,0,0.549-0.099,0.768-0.283l8.331-7.13c1.828-1.575,3.083-3.57,3.629-5.768c0.369-1.489,0.268-2.441,0.226-2.709
		C56.555,37.993,53.503,35.029,49.684,35.029z M54.787,44.308c-0.445,1.794-1.479,3.432-2.99,4.732l-7.796,6.672l-7.795-6.67
		c-1.514-1.305-2.549-2.941-2.993-4.735c-0.302-1.213-0.194-1.897-0.194-1.897l0.016-0.105c0.245-2.621,2.138-5.275,5.282-5.275
		c2.189,0,3.974,1.811,4.77,3.605L44,42.695l0.914-2.061c0.796-1.795,2.58-3.605,4.77-3.605c3.145,0,5.037,2.654,5.295,5.367
		C54.98,42.403,55.091,43.086,54.787,44.308z"/>
	<path d="M56.435,0.029H1.565C0.701,0.029,0,0.73,0,1.594v45.869c0,0.865,0.701,1.565,1.565,1.565h28.226
		c-0.637-1.106-1.126-2.283-1.432-3.517c-0.46-1.858-0.379-3.19-0.289-3.82c0.256-2.494,1.31-4.709,2.873-6.391
		C29.745,34.211,29,32.7,29,31.029c0-3.309,2.916-6,6.5-6c1.746,0,3.331,0.642,4.5,1.68v-9.511l-17,2.684V37.13
		c0,0.013-0.007,0.025-0.008,0.038c-0.081,3.244-2.959,5.861-6.492,5.861c-3.584,0-6.5-2.691-6.5-6s2.916-6,6.5-6
		c1.746,0,3.331,0.642,4.5,1.68v-13.68v-2.714v-3.286c0-0.492,0.358-0.911,0.844-0.987l19-3c0.29-0.047,0.583,0.037,0.805,0.228
		C41.872,9.458,42,9.737,42,10.029v1v5v15c0,0.584-0.095,1.147-0.265,1.681c0.791,0.318,1.554,0.738,2.265,1.265
		c1.7-1.261,3.689-1.946,5.684-1.946c3.4,0,6.433,1.739,8.316,4.453V1.594C58,0.73,57.299,0.029,56.435,0.029z"/>
</g>
<g>
</g>
<g>
</g>
<g>
</g>
<g>
</g>
<g>
</g>
<g>
</g>
<g>
</g>
<g>
</g>
<g>
</g>
<g>
</g>
<g>
</g>
<g>
</g>
<g>
</g>
<g>
</g>
<g>
</g>
</svg>
